<svg width="4400" height="2475" xmlns="http://www.w3.org/2000/svg" xmlns:xlink="http://www.w3.org/1999/xlink" xml:space="preserve" overflow="hidden"><defs><clipPath id="clip0"><rect x="0" y="0" width="4400" height="2475"/></clipPath><linearGradient x1="2200" y1="0" x2="2200" y2="2475" gradientUnits="userSpaceOnUse" spreadMethod="reflect" id="fill1"><stop offset="0" stop-color="#9B4C9F"/><stop offset="0.5" stop-color="#F48A74"/><stop offset="1" stop-color="#FDE43F"/></linearGradient></defs><g clip-path="url(#clip0)"><rect x="0" y="0" width="4400" height="2475" fill="url(#fill1)"/><path d="M2200 1888C2394.96 1888 2553 2046.15 2553 2241.25 2553 2314.41 2530.78 2382.37 2492.71 2438.75L2462.83 2475 1937.17 2475 1907.29 2438.75C1869.22 2382.37 1847 2314.41 1847 2241.25 1847 2046.15 2005.04 1888 2200 1888Z" fill="#FFC000" fill-rule="evenodd"/><path d="M2285.15 1752.41C2252.5 1748.97 2214.69 1748.28 2145.95 1749.66 2042.84 1752.06 2016.38 1749.31 1967.92 1732.46 1947.3 1724.9 1936.99 1723.87 1869.28 1722.15 1813.6 1720.77 1785.07 1718.71 1761.36 1713.55 1731.46 1707.36 1722.87 1707.02 1648.63 1710.11 1593.64 1712.52 1562.36 1712.52 1548.96 1710.11 1538.3 1708.05 1520.09 1706.33 1508.75 1705.99 1497.06 1705.64 1484 1704.61 1479.19 1703.24 1471.28 1700.83 1471.63 1700.14 1485.72 1696.36 1493.97 1693.95 1508.75 1690.86 1518.71 1689.14 1528.68 1687.42 1543.11 1682.95 1550.33 1679.16 1567.52 1670.57 1613.23 1664.38 1651.38 1665.41L1680.94 1666.44 1695.71 1653.72C1716.34 1636.18 1730.43 1634.12 1770.98 1643.06L1782.67 1645.47 1777.17 1637.21C1769.26 1626.21 1769.95 1620.71 1779.92 1605.92 1786.1 1596.64 1791.95 1592.51 1801.23 1590.79L1813.6 1588.38 1798.82 1581.16C1770.64 1567.75 1762.39 1542.3 1777.17 1516.51 1788.51 1496.91 1816.69 1488.32 1843.16 1496.91 1846.59 1497.94 1847.97 1493.82 1848.66 1480.06 1850.03 1460.46 1860.34 1439.83 1870.65 1436.39 1875.81 1435.02 1877.53 1430.2 1878.56 1414.73 1880.28 1389.63 1890.24 1375.53 1914.65 1363.84 1932.52 1354.9 1952.8 1353.86 1972.73 1360.4 1979.26 1362.8 1979.95 1361.77 1979.95 1347.67 1980.64 1315.69 2002.98 1283.03 2034.94 1267.55 2083.06 1243.83 2159.7 1257.92 2203.35 1298.16 2218.13 1311.57 2234.97 1338.05 2229.47 1338.73 2227.75 1339.08 2220.88 1338.73 2213.66 1338.39 2179.63 1337.01 2144.23 1356.27 2135.3 1381.37 2132.2 1389.97 2128.77 1393.41 2123.61 1393.41 2111.58 1393.41 2095.43 1406.13 2085.12 1423.33 2071.37 1447.05 2071.71 1472.84 2086.49 1504.48L2097.49 1527.52 2087.18 1527.52C2065.18 1527.52 2039.41 1546.43 2039.41 1562.25 2039.41 1570.16 2040.78 1570.16 2014.32 1561.56 1994.04 1555.03 1991.63 1554.68 1979.95 1559.5 1957.61 1569.13 1950.73 1599.73 1965.86 1623.11 1974.11 1635.49 1977.2 1631.71 1970.32 1617.96 1960.7 1598.7 1961.73 1583.91 1974.11 1571.53 1983.73 1562.25 1986.13 1561.22 1998.51 1563.28 2006.41 1564.66 2018.79 1568.78 2026.35 1572.56 2033.91 1576.35 2040.44 1579.1 2040.78 1578.41 2041.12 1577.72 2043.53 1570.85 2045.94 1562.59 2051.09 1543.68 2065.53 1534.4 2088.55 1534.4 2097.49 1534.4 2104.71 1532.68 2104.71 1530.96 2104.71 1528.89 2099.9 1517.89 2094.05 1506.54 2080.65 1479.72 2077.9 1456.68 2085.46 1436.74 2091.65 1420.57 2110.89 1400.63 2121.21 1399.94 2124.3 1399.6 2129.11 1399.25 2131.52 1398.91 2134.27 1398.91 2138.39 1392.72 2140.8 1385.5 2143.2 1377.93 2148.7 1368.31 2153.17 1363.84 2164.51 1351.46 2191.32 1343.89 2215.38 1346.3 2238.4 1348.36 2247.68 1354.55 2251.81 1370.71 2254.21 1379.65 2256.62 1381.72 2270.02 1384.12 2290.99 1388.25 2302.33 1397.54 2309.21 1415.76 2314.7 1429.86 2314.7 1436.39 2308.86 1456.34 2307.49 1460.46 2308.86 1462.18 2314.36 1462.18 2324.67 1462.18 2338.42 1470.09 2350.45 1482.47 2358.35 1491.07 2360.76 1496.57 2360.76 1507.92 2360.76 1515.83 2359.73 1525.45 2358.35 1529.24 2356.29 1534.74 2358.7 1537.83 2369.7 1544.71 2377.26 1549.53 2386.88 1558.47 2390.66 1565 2397.88 1576.35 2398.22 1576.35 2417.47 1574.28 2431.22 1572.56 2440.5 1573.6 2449.43 1577.38 2456.31 1580.13 2471.43 1582.54 2482.77 1582.54 2504.08 1582.54 2517.14 1589.76 2517.14 1601.45 2517.14 1605.23 2521.26 1606.61 2532.95 1606.61 2553.57 1606.61 2571.44 1615.2 2579.69 1629.65 2583.47 1635.84 2588.28 1640.99 2590.69 1640.99 2593.1 1640.99 2602.38 1645.81 2611.31 1651.31 2626.78 1661.28 2629.18 1661.63 2658.4 1660.94L2688.99 1659.91 2692.42 1647.87C2698.27 1625.86 2716.82 1613.14 2751.88 1606.26 2796.22 1598.01 2828.18 1627.24 2805.84 1655.78 2796.91 1667.13 2797.25 1668.5 2808.59 1668.5 2817.87 1668.5 2831.62 1675.04 2848.8 1687.07 2857.05 1692.92 2859.8 1693.26 2881.8 1689.14 2909.98 1684.32 2974.25 1683.98 2995.56 1688.79 3003.81 1690.86 3017.21 1694.98 3025.8 1698.08 3037.49 1702.55 3052.96 1704.27 3087.67 1704.61 3116.54 1704.61 3139.91 1706.67 3149.53 1709.77L3165 1714.58 3139.22 1716.99C3125.13 1718.37 3066.36 1721.12 3008.62 1723.18 2950.88 1725.24 2897.61 1728.34 2890.05 1730.4 2882.48 1732.46 2817.18 1734.87 2742.26 1735.56 2668.36 1736.59 2596.53 1738.65 2582.44 1740.37 2549.45 1743.81 2521.61 1742.44 2492.05 1735.22 2470.05 1730.06 2466.96 1730.06 2449.09 1735.22 2438.09 1738.31 2410.25 1743.81 2386.54 1747.59 2362.82 1751.38 2340.48 1755.16 2336.7 1755.85 2332.92 1756.53 2309.89 1754.82 2285.15 1752.41Z" fill="#E48888" fill-rule="evenodd"/><path d="M614.2 1964.45C612.748 1963.76 587.591 1961.35 558.081 1959.29 474.871 1953.45 468.098 1950.36 532.44 1948.29 577.432 1946.58 593.397 1944.51 617.102 1937.3 635.002 1931.8 655.321 1928.36 670.318 1928.36 698.862 1928.36 715.794 1922.86 696.442 1920.11 665.48 1915.65 480.676 1909.8 400.368 1910.83 337.96 1911.87 220.885 1905.68 209.274 1901.21 204.921 1899.49 213.145 1896.4 231.045 1892.96 288.615 1881.97 302.644 1879.22 309.417 1877.84 328.769 1874.06 300.709 1872.69 210.242 1873.03 155.091 1873.37 110.583 1872.69 112.035 1872 115.421 1869.59 195.245 1858.94 229.593 1856.19 254.75 1854.13 273.618 1849.66 303.128 1839.01 340.863 1825.26 344.733 1824.23 372.792 1826.29 393.595 1827.67 408.109 1826.64 419.72 1822.86 430.846 1819.76 443.425 1818.73 455.519 1820.11 471 1822.17 476.806 1820.79 491.803 1812.55 506.8 1804.64 514.541 1802.92 537.762 1802.92 564.37 1803.27 565.337 1802.92 558.565 1796.39 546.47 1784.02 549.856 1765.12 566.789 1751.37 575.013 1744.84 585.173 1739.34 589.043 1739.34 594.364 1739.34 595.332 1737.63 592.913 1733.5 576.465 1705.67 580.818 1680.23 605.008 1663.05 615.651 1655.49 623.391 1653.43 638.872 1653.43 649.999 1653.43 663.062 1655.15 668.383 1656.86 676.124 1659.96 680.478 1658.24 696.927 1646.21 710.472 1635.9 718.696 1632.46 725.953 1633.84 737.564 1635.9 737.564 1634.53 728.372 1615.63 719.18 1597.07 719.18 1570.26 728.372 1547.92 737.564 1526.27 768.526 1496.37 792.715 1486.06 815.937 1476.1 852.22 1475.41 878.344 1485.03L896.728 1491.91 921.885 1475.07C942.203 1461.32 951.396 1457.54 970.263 1455.82 1030.25 1449.29 1082.5 1482.63 1078.15 1524.21 1076.69 1533.83 1074.28 1544.49 1072.34 1547.92 1068.95 1553.08 1071.86 1553.77 1099.43 1553.77 1138.62 1553.77 1172.48 1565.11 1199.58 1586.76 1229.57 1611.16 1242.15 1647.93 1229.09 1672.33 1224.25 1681.27 1224.73 1681.27 1238.28 1679.2 1255.69 1676.45 1280.37 1684.7 1284.72 1694.67 1289.07 1703.95 1292.46 1703.26 1304.07 1690.54 1326.81 1664.77 1398.89 1653.43 1437.11 1668.89 1461.78 1679.2 1477.27 1701.89 1473.88 1723.54 1470.98 1741.41 1455.01 1763.75 1435.18 1776.8L1422.6 1785.4 1435.66 1795.02C1443.88 1801.2 1453.56 1804.64 1462.75 1804.64 1470.01 1804.64 1480.17 1806.02 1485.01 1808.08 1500 1813.58 1631.11 1826.29 1674.16 1825.95 1696.42 1825.95 1720.12 1827.67 1727.38 1829.73 1738.99 1833.17 1738.51 1833.51 1717.71 1835.92 1705.61 1837.29 1672.23 1839.35 1642.72 1840.73 1613.69 1841.76 1571.12 1845.88 1548.38 1849.32 1493.23 1857.91 1416.31 1863.75 1367.93 1862.72 1346.16 1862.03 1316.65 1863.41 1302.14 1865.81 1288.11 1868.22 1260.05 1869.94 1240.7 1869.94 1221.35 1869.94 1187.48 1873.03 1165.23 1877.16 1139.1 1881.62 1100.4 1884.72 1054.92 1886.09L985.26 1888.15 1006.55 1901.21C1018.64 1908.43 1034.61 1915.3 1042.83 1916.68 1060.73 1919.43 1080.08 1928.02 1076.69 1932.14 1075.24 1933.52 1063.63 1935.92 1051.05 1937.3 1038.48 1938.33 1001.71 1943.14 969.295 1947.61 932.044 1952.76 892.374 1955.85 862.863 1955.85 836.739 1955.85 784.007 1958.26 745.305 1961.01 675.156 1965.82 618.07 1967.54 614.2 1964.45Z" fill="#E48888" fill-rule="evenodd"/><path d="M3571.13 1803.75C3563.91 1801.35 3563.57 1801.35 3603.11 1792.36 3618.58 1788.77 3634.39 1786.08 3638.52 1786.08 3642.64 1786.08 3649.86 1783.98 3654.33 1781.28 3659.14 1778.59 3671.86 1773.2 3682.52 1769.3 3693.52 1765.41 3699.37 1762.11 3695.59 1762.11 3691.8 1762.11 3681.83 1765.11 3673.24 1768.4 3649.86 1777.99 3585.23 1785.18 3491.37 1788.77 3387.55 1792.66 3163.39 1792.96 3166.14 1789.07 3171.99 1780.98 3191.93 1775.89 3228.71 1773.8 3263.44 1771.7 3269.97 1770.2 3292.31 1760.62 3306.07 1754.63 3331.85 1746.54 3349.73 1742.35 3367.26 1738.15 3391.67 1729.77 3403.7 1724.08 3439.12 1707 3434.3 1704.01 3397.52 1720.48 3357.98 1738.15 3311.22 1744.14 3197.08 1745.94 3086.73 1748.04 3079.51 1747.74 3065.07 1743.54 3054.75 1740.85 3054.06 1739.95 3058.88 1736.66 3061.97 1734.56 3078.13 1732.16 3094.63 1731.26 3111.48 1730.07 3136.58 1725.87 3151.01 1721.98 3174.39 1715.39 3180.93 1714.79 3215.3 1716.29 3243.15 1717.49 3253.81 1717.19 3253.81 1714.49 3253.81 1712.69 3249.68 1711.2 3244.87 1711.2 3214.27 1711.2 3190.55 1697.72 3190.55 1680.05 3190.55 1666.57 3197.08 1660.28 3210.84 1660.28 3229.06 1660.28 3235.59 1645.3 3219.43 1640.81 3215.65 1639.91 3208.77 1634.82 3203.96 1630.03 3188.83 1614.15 3193.3 1580.31 3212.9 1562.64 3234.9 1542.57 3264.47 1542.87 3298.5 1563.24 3308.13 1569.23 3317.07 1573.42 3317.76 1572.52 3318.44 1571.92 3317.76 1564.14 3315.69 1555.45 3311.57 1537.18 3315.69 1510.82 3324.29 1499.44 3338.73 1480.27 3367.61 1476.98 3385.83 1492.25L3396.48 1501.24 3396.48 1470.09C3396.48 1440.44 3396.83 1438.64 3406.8 1426.36 3413.33 1418.27 3424.33 1410.18 3436.02 1404.79 3453.21 1397.01 3457.34 1396.11 3482.78 1397.31 3515.44 1398.8 3538.47 1408.39 3550.16 1425.76 3555.66 1433.85 3559.1 1435.64 3564.6 1434.45 3568.73 1433.55 3577.32 1432.65 3584.2 1432.65 3596.57 1432.65 3596.57 1432.65 3598.64 1417.67 3606.54 1360.17 3666.71 1327.22 3720.68 1350.58 3751.28 1363.76 3769.5 1387.12 3776.72 1421.87L3780.5 1442.23 3768.13 1453.31C3761.25 1459.6 3752.66 1470.99 3749.22 1479.07 3743.72 1491.35 3740.62 1494.35 3729.97 1497.64 3716.56 1501.54 3706.24 1507.53 3708.99 1509.62 3709.68 1510.22 3716.21 1508.73 3723.43 1506.33 3731 1503.93 3745.78 1499.74 3756.78 1497.04 3778.44 1491.95 3783.6 1487.76 3764.35 1490.75 3751.28 1492.85 3750.25 1491.65 3756.09 1478.47 3761.25 1466.49 3778.78 1451.22 3797.01 1443.13 3805.6 1439.24 3819.35 1433.25 3827.95 1429.35 3849.95 1419.17 3890.17 1417.67 3909.08 1426.06 3926.62 1433.85 3933.15 1440.44 3939.68 1456.61 3942.78 1464.1 3949.65 1473.98 3955.15 1479.07 3968.56 1491.35 3975.78 1507.53 3978.19 1531.19 3979.91 1547.66 3978.87 1553.35 3973.03 1563.54 3965.81 1575.52 3933.84 1603.37 3926.96 1603.37 3924.9 1603.37 3931.43 1606.97 3941.4 1611.76 3958.25 1619.25 3968.22 1630.03 3973.72 1646.2 3975.44 1650.69 3976.81 1650.99 3983.34 1648 3993.31 1643.21 4033.88 1643.51 4044.54 1648.3 4060.7 1655.49 4065.17 1660.88 4065.17 1673.16 4065.17 1682.14 4067.23 1686.34 4073.42 1690.53 4085.11 1698.32 4087.17 1706.1 4080.98 1716.59 4075.82 1725.27 4075.82 1725.57 4086.83 1727.67 4093.01 1729.17 4110.89 1730.37 4127.05 1730.37 4151.8 1730.67 4159.37 1731.86 4176.9 1739.35 4196.15 1747.14 4200.62 1747.74 4245.66 1748.34 4272.13 1748.94 4311.67 1749.23 4333.33 1749.53 4368.74 1750.13 4386.27 1752.83 4381.11 1757.32 4380.43 1758.22 4347.08 1760.32 4307.54 1761.81 4267.66 1763.61 4211.62 1766.61 4182.74 1768.4 4140.46 1771.4 4127.39 1771.1 4115.7 1768.1 4107.8 1766.01 4085.11 1763.91 4065.17 1763.61 4044.54 1763.31 4025.63 1761.52 4021.5 1759.42 4017.04 1757.62 4013.6 1757.32 4013.6 1758.82 4013.6 1764.21 4036.63 1768.7 4072.04 1770.2 4092.33 1771.1 4112.27 1773.8 4117.42 1775.89 4122.58 1778.29 4136.33 1780.09 4148.37 1780.38 4172.77 1780.68 4186.18 1783.38 4187.9 1787.87 4189.96 1792.96 4106.42 1796.26 3858.89 1801.05 3613.42 1805.54 3578.01 1805.84 3571.13 1803.75Z" fill="#E48888" fill-rule="evenodd"/></g></svg>