<svg viewBox="0 0 1429 1429" width="32" height="32" xmlns="http://www.w3.org/2000/svg" xmlns:xlink="http://www.w3.org/1999/xlink" xml:space="preserve" overflow="hidden"><defs><clipPath id="clip0"><rect x="2441" y="1032" width="1429" height="1429"/></clipPath><clipPath id="clip1"><rect x="2635" y="1248" width="1041" height="1039"/></clipPath><clipPath id="clip2"><rect x="2635" y="1248" width="1041" height="1039"/></clipPath><clipPath id="clip3"><rect x="2635" y="1248" width="1041" height="1039"/></clipPath></defs><g clip-path="url(#clip0)" transform="translate(-2441 -1032)"><path d="M2441 1746.5C2441 1351.89 2760.89 1032 3155.5 1032 3550.11 1032 3870 1351.89 3870 1746.5 3870 2141.11 3550.11 2461 3155.5 2461 2760.89 2461 2441 2141.11 2441 1746.5Z" fill="#FF4500" fill-rule="evenodd"/><g clip-path="url(#clip1)"><g clip-path="url(#clip2)"><g clip-path="url(#clip3)"><path d="M519.486 0C278.747 0 109.795 403.332 109.795 621.713 109.795 733.436 151.715 838.079 227.824 916.371 304.702 995.455 408.278 1039.01 519.486 1039.01 630.7 1039.01 734.298 995.455 811.181 916.377 887.302 838.084 929.211 733.436 929.211 621.713 929.205 403.332 760.252 0 519.486 0ZM847.944 621.713C847.944 810.136 703.673 957.739 519.481 957.739 335.321 957.739 191.05 810.136 191.05 621.713 191.05 522.26 231.806 382.085 292.47 272.902 360.139 151.108 442.879 81.2612 519.486 81.2612 596.105 81.2612 678.856 151.108 746.53 272.902 807.189 382.079 847.944 522.255 847.944 621.713Z" transform="matrix(1 0 0 1 2636 1248)"/></g></g></g></g></svg>