<svg viewBox="0 0 1429 1429" width="32" height="32" xmlns="http://www.w3.org/2000/svg" xmlns:xlink="http://www.w3.org/1999/xlink" xml:space="preserve" overflow="hidden"><defs><clipPath id="clip0"><rect x="981" y="-457" width="1430" height="1429"/></clipPath><clipPath id="clip1"><rect x="1175" y="-209" width="1042" height="1040"/></clipPath><clipPath id="clip2"><rect x="1175" y="-209" width="1042" height="1040"/></clipPath><clipPath id="clip3"><rect x="1175" y="-209" width="1042" height="1040"/></clipPath></defs><g clip-path="url(#clip0)" transform="translate(-981 457)"><path d="M981 257.5C981-137.107 1301.12-457 1696-457 2090.88-457 2411-137.107 2411 257.5 2411 652.107 2090.88 972 1696 972 1301.12 972 981 652.107 981 257.5Z" fill="#FF4500" fill-rule="evenodd"/><g clip-path="url(#clip1)"><g clip-path="url(#clip2)"><g clip-path="url(#clip3)"><path d="M810.043 575.113C803.421 568.502 794.064 565.393 784.825 566.724 779.228 567.525 646.859 587.341 563.256 670.94 558.207 675.989 553.542 681.158 549.215 686.402L549.215 598.028C584.561 597.062 648.379 587.437 699.476 536.343 776.754 459.066 794.823 337.292 795.553 332.145 796.87 322.886 793.749 313.545 787.132 306.935 780.51 300.324 771.159 297.221 761.914 298.546 756.761 299.287 634.835 317.538 557.754 394.619 554.753 397.62 551.942 400.681 549.219 403.763L549.219 321.053C581.846 319.679 637.524 310.048 682.386 265.191 752.1 195.476 768.377 85.7743 769.033 81.1374 770.35 71.8777 767.229 62.5368 760.611 55.9315 753.989 49.3221 744.634 46.2112 735.393 47.5424 730.748 48.208 620.918 64.6514 551.382 134.187 550.636 134.934 549.948 135.699 549.219 136.454L549.219 118.872C549.219 102.459 535.911 89.1551 519.502 89.1551 503.089 89.1551 489.785 102.459 489.785 118.872L489.785 136.454C489.057 135.703 488.371 134.936 487.622 134.187 418.086 64.6514 308.252 48.208 303.611 47.5424 294.36 46.2071 285.011 49.3221 278.389 55.9315 271.772 62.5409 268.651 71.8818 269.968 81.1414 270.627 85.7764 286.904 195.476 356.619 265.191 401.482 310.054 457.162 319.683 489.785 321.053L489.785 403.765C487.064 400.683 484.251 397.622 481.25 394.621 404.169 317.54 282.243 299.285 277.09 298.548 267.837 297.219 258.488 300.328 251.868 306.937 245.251 313.547 242.13 322.888 243.447 332.147 244.177 337.292 262.246 459.066 339.526 536.345 390.621 587.445 454.443 597.068 489.787 598.03L489.787 686.408C485.461 681.162 480.797 675.995 475.746 670.947 392.147 587.346 259.774 567.529 254.182 566.728 244.928 565.393 235.579 568.508 228.96 575.117 222.342 581.726 219.221 591.067 220.538 600.327 221.331 605.914 240.949 738.118 324.761 821.934 381.305 878.479 452.267 887.99 489.785 888.609L489.785 920.148C489.785 936.561 503.089 949.865 519.502 949.865 535.913 949.865 549.219 936.561 549.219 920.148L549.219 888.609C586.747 887.99 657.709 878.473 714.248 821.934 798.06 738.118 817.677 605.914 818.466 600.327 819.783 591.061 816.66 581.72 810.043 575.113ZM599.779 436.65C637.015 399.41 689.612 378.531 726.521 367.664 715.737 404.457 694.923 456.841 657.446 494.321 624.325 527.441 582.246 536.195 555.788 538.157 557.657 511.813 566.367 470.06 599.779 436.65ZM593.407 176.216C624.325 145.296 667.375 127.168 699.499 117.163 689.567 149.17 671.484 192.034 640.355 223.164 613.063 250.456 578.711 258.76 555.551 261.026 557.817 237.836 566.123 203.496 593.407 176.216ZM398.643 223.164C367.69 192.211 349.579 149.271 339.591 117.194 371.714 127.206 414.701 145.328 445.587 176.212 472.877 203.504 481.183 237.858 483.45 261.02 460.261 258.752 425.921 250.446 398.643 223.164ZM381.55 494.319C344.26 457.028 323.407 404.555 312.558 367.688 349.477 378.565 402.014 399.441 439.221 436.65 472.266 469.695 481.057 511.665 483.042 538.135 456.533 536.146 414.581 527.349 381.55 494.319ZM366.781 779.899C323.953 737.071 300.793 676.188 289.278 635.44 330 646.928 390.802 670.062 433.714 712.969 471.842 751.098 480.911 799.837 482.626 828.958 453.621 827.346 405.224 818.338 366.781 779.899ZM672.215 779.899C634.155 817.959 585.523 827.064 556.383 828.806 558.124 799.628 567.235 751.016 605.283 712.969 648.022 670.23 708.982 647.041 749.775 635.495 738.321 676.17 715.222 736.895 672.215 779.899Z" transform="matrix(1.00096 0 0 1 1176 -209)"/><path d="M548.62 23.9072C548.263 22.0057 547.669 20.1327 546.926 18.3509 546.183 16.5672 545.262 14.8443 544.193 13.2391 543.125 11.6055 541.877 10.0897 540.507 8.69148 539.14 7.32373 537.626 6.10615 535.99 5.00628 534.385 3.93684 532.662 3.01554 530.85 2.27281 529.066 1.53009 527.197 0.965945 525.296 0.57835 521.493-0.194813 517.54-0.194813 513.706 0.57835 511.805 0.963916 509.932 1.53009 508.15 2.27281 506.338 3.01554 504.613 3.93684 503.01 5.00628 501.376 6.10615 499.861 7.32373 498.493 8.69148 497.125 10.0876 495.877 11.6035 494.808 13.2391 493.738 14.8443 492.817 16.5672 492.074 18.3509 491.331 20.1347 490.737 22.0057 490.38 23.9072 489.994 25.839 489.785 27.7709 489.785 29.7312 489.785 37.5461 492.965 45.2148 498.493 50.7405 499.856 52.1083 501.376 53.3563 503.006 54.4257 504.611 55.4952 506.334 56.4165 508.146 57.1592 509.93 57.9019 511.801 58.4661 513.702 58.8537 515.604 59.2392 517.566 59.4483 519.498 59.4483 521.43 59.4483 523.39 59.2413 525.294 58.8537 527.195 58.4681 529.068 57.9019 530.848 57.1592 532.66 56.4165 534.385 55.4952 535.988 54.4257 537.622 53.3563 539.138 52.1083 540.505 50.7405 546.033 45.2127 549.215 37.5461 549.215 29.7312 549.213 27.8014 549.006 25.839 548.62 23.9072Z" transform="matrix(1.00096 0 0 1 1176 -209)"/><path d="M548.62 1003.49C548.263 1001.59 547.669 999.713 546.926 997.931 546.183 996.149 545.262 994.394 544.193 992.791 543.125 991.157 541.877 989.642 540.507 988.274 539.14 986.906 537.624 985.658 535.99 984.589 534.385 983.519 532.662 982.598 530.85 981.855 529.066 981.112 527.197 980.548 525.296 980.161 521.491 979.387 517.54 979.387 513.706 980.161 511.805 980.546 509.932 981.112 508.15 981.855 506.338 982.598 504.613 983.519 503.01 984.589 501.376 985.658 499.861 986.906 498.493 988.274 497.125 989.642 495.877 991.155 494.808 992.791 493.738 994.396 492.817 996.149 492.074 997.931 491.331 999.715 490.737 1001.59 490.38 1003.49 489.994 1005.39 489.785 1007.35 489.785 1009.28 489.785 1011.22 489.994 1013.18 490.38 1015.11 490.737 1017.01 491.331 1018.85 492.074 1020.66 492.817 1022.45 493.738 1024.17 494.808 1025.78 495.877 1027.41 497.125 1028.92 498.493 1030.32 499.861 1031.69 501.374 1032.91 503.01 1034.01 504.615 1035.08 506.338 1036 508.15 1036.74 509.934 1037.48 511.805 1038.05 513.706 1038.44 515.608 1038.82 517.57 1039 519.502 1039 521.434 1039 523.394 1038.82 525.298 1038.44 527.199 1038.05 529.072 1037.48 530.852 1036.74 532.664 1036 534.389 1035.08 535.992 1034.01 537.626 1032.91 539.142 1031.69 540.509 1030.32 541.879 1028.93 543.127 1027.41 544.195 1025.78 545.264 1024.17 546.185 1022.45 546.928 1020.66 547.671 1018.85 548.265 1017.01 548.623 1015.11 549.008 1013.18 549.217 1011.22 549.217 1009.28 549.215 1007.35 549.006 1005.39 548.62 1003.49Z" transform="matrix(1.00096 0 0 1 1176 -209)"/></g></g></g></g></svg>