<svg viewBox="0 0 1429 1429" width="32" height="32" xmlns="http://www.w3.org/2000/svg" xmlns:xlink="http://www.w3.org/1999/xlink" xml:space="preserve" overflow="hidden"><defs><clipPath id="clip0"><rect x="1085" y="114" width="1429" height="1429"/></clipPath><clipPath id="clip1"><rect x="1280" y="330" width="1039" height="1040"/></clipPath><clipPath id="clip2"><rect x="1280" y="330" width="1039" height="1040"/></clipPath><clipPath id="clip3"><rect x="1280" y="330" width="1039" height="1040"/></clipPath></defs><g clip-path="url(#clip0)" transform="translate(-1085 -114)"><path d="M1085 828.5C1085 433.893 1404.89 114 1799.5 114 2194.11 114 2514 433.893 2514 828.5 2514 1223.11 2194.11 1543 1799.5 1543 1404.89 1543 1085 1223.11 1085 828.5Z" fill="#FF4500" fill-rule="evenodd"/><g clip-path="url(#clip1)"><g clip-path="url(#clip2)"><g clip-path="url(#clip3)"><path d="M269.76 438.234 269.76 935.403C269.76 992.531 319.32 1039 380.233 1039L658.767 1039C719.679 1039 769.24 992.531 769.24 935.403L769.24 438.234C769.24 395.609 755.725 331.206 738.464 291.599L662.662 117.739C654.979 100.111 634.472 92.0555 616.83 99.7253 599.201 107.409 591.137 127.93 598.816 145.558L674.622 319.423C687.928 349.953 699.6 405.47 699.6 438.229L699.6 935.398C699.6 953.806 680.903 969.359 658.767 969.359L380.233 969.359C358.096 969.359 339.4 953.806 339.4 935.398L339.4 438.234C339.4 405.679 351.583 350.719 365.474 320.63L445.983 146.245C454.042 128.784 446.424 108.096 428.963 100.036 411.506 91.9719 390.818 99.5953 382.754 117.056L302.245 291.441C284.031 330.909 269.76 395.387 269.76 438.234Z" transform="matrix(1 0 0 1 1280 330)"/><path d="M645.508 69.6405C664.742 69.6405 680.328 54.055 680.328 34.8203 680.328 15.5856 664.742 0 645.508 0L399.834 0C380.599 0 365.014 15.5856 365.014 34.8203 365.014 54.055 380.599 69.6405 399.834 69.6405L645.508 69.6405Z" transform="matrix(1 0 0 1 1280 330)"/></g></g></g></g></svg>