<svg viewBox="0 0 1429 1429" width="32" height="32" xmlns="http://www.w3.org/2000/svg" xmlns:xlink="http://www.w3.org/1999/xlink" xml:space="preserve" overflow="hidden"><defs><clipPath id="clip0"><rect x="785" y="1032" width="1430" height="1429"/></clipPath></defs><g clip-path="url(#clip0)" transform="translate(-785 -1032)"><path d="M785 1746.5C785 1351.89 1105.12 1032 1500 1032 1894.88 1032 2215 1351.89 2215 1746.5 2215 2141.11 1894.88 2461 1500 2461 1105.12 2461 785 2141.11 785 1746.5Z" fill="#00B050" fill-rule="evenodd"/><path d="M1953.04 1371.86C1951.72 1366.49 1947.53 1362.29 1942.16 1360.97 1918.04 1355.02 1892.72 1353.51 1866.91 1356.49 1806.03 1363.52 1746.21 1393.72 1698.45 1441.53 1650.7 1489.33 1620.53 1549.22 1613.51 1610.16 1610.87 1633.08 1611.77 1655.59 1616.15 1677.24 1615.95 1677.46 1615.72 1677.65 1615.52 1677.88 1550.06 1755.73 1505.75 1840.29 1476.21 1923.99 1450.85 1825.48 1413.04 1734.86 1363.38 1654.05 1289.47 1533.75 1188.62 1433.88 1063.64 1357.2 1057.11 1353.19 1048.6 1354.81 1043.99 1360.93 1039.38 1367.06 1040.18 1375.69 1045.83 1380.87 1197.63 1519.96 1304.58 1681.61 1363.69 1861.34 1388.59 1937.02 1421.68 2060.61 1421.68 2259.11 1421.68 2267.34 1428.34 2274 1436.55 2274L1500 2274C1508.21 2274 1514.87 2267.34 1514.87 2259.11 1514.87 2248.32 1514.81 2237.27 1514.76 2225.99 1513.98 2077.71 1513 1889.99 1641.54 1699.08 1653.65 1701.26 1666.01 1702.35 1678.55 1702.35 1687 1702.35 1695.53 1701.86 1704.12 1700.86 1764.99 1693.84 1824.82 1663.64 1872.57 1615.83 1920.33 1568.03 1950.49 1508.13 1957.51 1447.19 1960.49 1421.36 1958.99 1396.01 1953.04 1371.86ZM1391.94 1852.02C1349.15 1721.91 1282.02 1601.09 1191.66 1491.18 1248.54 1544 1297.5 1603.65 1338.05 1669.65 1394.09 1760.86 1434.66 1865.1 1458.66 1979.49 1450.81 2007.45 1444.49 2035.11 1439.44 2062.21 1430.86 1997.46 1416.35 1926.25 1391.94 1852.02ZM1485.01 2226.15C1485.05 2232.24 1485.08 2238.27 1485.1 2244.23L1451.52 2244.23C1452.83 2146.43 1467.45 2024.15 1516.1 1902.41 1483.94 2021.32 1484.53 2133.89 1485.01 2226.15ZM1927.97 1443.78C1915.01 1556.26 1813.07 1658.32 1700.71 1671.29 1687.2 1672.85 1673.89 1672.96 1660.88 1671.7 1709.05 1606.5 1773.01 1541.14 1857.91 1477.05 1864.47 1472.1 1865.78 1462.76 1860.83 1456.2 1855.89 1449.64 1846.57 1448.33 1840.01 1453.27 1759.89 1513.75 1694.2 1577.96 1642.13 1646.87 1641.47 1635.95 1641.76 1624.82 1643.06 1613.57 1656.02 1501.1 1757.96 1399.04 1870.32 1386.07 1889.41 1383.86 1908.14 1384.49 1926.12 1387.92 1929.55 1405.92 1930.17 1424.67 1927.97 1443.78Z" stroke="#000000" stroke-width="27.5" stroke-miterlimit="8" fill-rule="evenodd"/></g></svg>