<svg viewBox="0 0 1429 1429" width="32" height="32" xmlns="http://www.w3.org/2000/svg" xmlns:xlink="http://www.w3.org/1999/xlink" xml:space="preserve" overflow="hidden"><defs><clipPath id="clip0"><rect x="-243" y="215" width="1429" height="1429"/></clipPath></defs><g clip-path="url(#clip0)" transform="translate(243 -215)"><path d="M-243 929.5C-243 534.892 76.8925 215 471.5 215 866.107 215 1186 534.892 1186 929.5 1186 1324.11 866.107 1644 471.5 1644 76.8925 1644-243 1324.11-243 929.5Z" fill="#00B050" fill-rule="evenodd"/><path d="M984.259 539.064C982.763 532.989 978.019 528.245 971.944 526.748 944.64 520.023 915.988 518.315 886.768 521.688 817.869 529.632 750.161 563.775 696.11 617.823 642.062 671.872 607.921 739.582 599.974 808.481 596.988 834.386 598.006 859.845 602.964 884.317 602.728 884.564 602.47 884.779 602.248 885.044 528.162 973.06 478.003 1068.66 444.573 1163.28 415.876 1051.91 373.073 949.457 316.877 858.097 233.22 722.096 119.082 609.182-22.3721 522.482-29.7684 517.949-39.3956 519.78-44.6129 526.708-49.8305 533.635-48.9305 543.392-42.5329 549.247 129.28 706.5 250.318 889.26 317.225 1092.45 345.401 1178.02 382.861 1317.74 382.861 1542.17 382.861 1551.47 390.397 1559 399.692 1559L471.502 1559C480.797 1559 488.332 1551.47 488.332 1542.17 488.332 1529.97 488.267 1517.48 488.2 1504.72 487.32 1337.08 486.212 1124.84 631.701 909.01 645.399 911.47 659.388 912.708 673.582 912.708 683.146 912.706 692.807 912.148 702.524 911.025 771.423 903.082 839.131 868.938 893.18 814.89 947.228 760.842 981.371 693.13 989.318 624.232 992.69 595.021 990.987 566.365 984.259 539.064ZM349.198 1081.92C300.762 934.822 224.791 798.219 122.518 673.965 186.898 733.682 242.309 801.118 288.204 875.733 351.635 978.857 397.544 1096.71 424.709 1226.04 415.827 1257.64 408.672 1288.92 402.957 1319.55 393.247 1246.35 376.827 1165.84 349.198 1081.92ZM454.539 1504.9C454.577 1511.79 454.611 1518.61 454.635 1525.34L416.634 1525.34C418.118 1414.78 434.654 1276.53 489.717 1138.89 453.325 1273.33 453.991 1400.6 454.539 1504.9ZM955.881 620.377C941.216 747.539 825.831 862.924 698.668 877.589 683.38 879.355 668.306 879.483 653.585 878.049 708.107 804.341 780.489 730.444 876.589 657.983 884.012 652.389 885.491 641.835 879.895 634.411 874.3 626.993 863.746 625.511 856.325 631.106 765.64 699.483 691.301 772.071 632.365 849.978 631.62 837.631 631.946 825.058 633.416 812.334 648.081 685.172 763.466 569.787 890.628 555.122 912.24 552.631 933.438 553.338 953.785 557.223 957.665 577.569 958.374 598.765 955.881 620.377Z" fill-rule="evenodd"/></g></svg>