<svg width="1037" height="1087" xmlns="http://www.w3.org/2000/svg" xmlns:xlink="http://www.w3.org/1999/xlink" xml:space="preserve" overflow="hidden"><defs><clipPath id="clip0"><rect x="183" y="304" width="1037" height="1087"/></clipPath></defs><g clip-path="url(#clip0)" transform="translate(-183 -304)"><path d="M1171.51 947.331C1098.83 976.649 1004.45 1045.44 996.93 1048.57 989.379 1051.67 957.059 1098.27 1020.44 1115.55 981.019 1163.03 820.599 1250.94 701.819 1222.61 731.709 1072.63 774.139 859.871 801.329 723.465L910.019 745.185C915.069 769.248 933.939 789.186 959.55 794.291 993.819 801.137 1027.15 778.876 1033.99 744.585 1040.83 710.253 1018.59 676.903 984.319 670.056 958.709 664.951 933.639 676.102 919.759 696.38L811.06 674.651C819.319 633.282 825.079 604.336 827.069 594.336 880.609 581.084 924.489 538.205 935.999 480.492 951.869 400.858 900.239 323.397 820.699 307.506 741.13 291.631 663.749 343.296 647.869 422.929 635.76 483.735 663.069 543.169 712.04 574.999 709.599 587.27 704.189 614.415 696.729 651.809L592.01 630.91C586.939 606.838 568.069 586.92 542.47 581.785 508.2 574.958 474.86 597.209 468.03 631.521 461.18 665.832 483.43 699.193 517.7 706.029 543.31 711.154 568.37 699.984 582.28 679.725L686.999 700.624C659.809 837.03 617.39 1049.8 587.48 1199.75 466.92 1180.31 352.52 1037.47 334.32 978.49 399.479 986.888 387.49 931.447 381.71 925.661 375.96 919.916 315.2 820.124 259.32 765.134 203.451 710.163 208.364 778.026 208.364 778.026 208.364 778.026 191.552 873.864 183.615 948.392 175.664 1022.92 247.45 998.038 247.45 998.038 290.99 1218.96 521.08 1336.43 571.6 1371.91 587.14 1382.79 599.519 1387.37 609.289 1388.54 618.769 1391.22 631.97 1391.75 650.48 1387.66 710.74 1374.3 968.239 1354.26 1093.17 1166.98 1093.17 1166.98 1149.9 1217.53 1171.15 1145.64 1192.4 1073.79 1213.62 978.821 1213.62 978.821 1213.62 978.821 1244.19 918.035 1171.51 947.331ZM804.319 389.578C838.599 396.434 860.829 429.805 853.999 464.087 847.149 498.418 813.839 520.669 779.559 513.822 745.28 506.966 723.04 473.615 729.89 439.314 736.729 405.002 770.06 382.732 804.319 389.578Z" fill="#010101" fill-rule="evenodd"/></g></svg>